<svg width="1920" height="1080" viewBox="0 0 1920 1080" fill="none" xmlns="http://www.w3.org/2000/svg">
<rect x="0.000488281" width="1920" height="1080" fill="white"/>
<path d="M267.906 62.8787C303.603 100.85 319.036 117.179 319.019 116.962C319.011 116.826 317.764 112.349 316.24 107.007C314.716 101.665 313.302 96.6493 313.073 95.8591C312.857 95.0635 312.437 93.5636 312.131 92.5155C311.836 91.4621 310.799 87.8263 309.829 84.4252C308.871 81.0187 307.778 77.1711 307.415 75.8829L306.741 73.5352L294.827 60.8759L282.913 48.2166L272.884 52.8512L262.849 57.5025L267.906 62.8787Z" fill="#595959"/>
<path d="M304.906 48.9879C304.942 49.1537 305.603 51.5635 306.402 54.3577C307.195 57.1404 308.215 60.7701 308.681 62.402C309.148 64.0339 309.77 66.2381 310.065 67.2915C310.36 68.3449 311.774 73.3602 313.214 78.4331C314.644 83.5113 316.302 89.3514 316.893 91.4298C320.095 102.743 324.447 118.116 326.062 123.864C326.369 124.912 326.623 125.817 326.65 125.874C326.671 125.92 331.228 123.823 336.77 121.225L346.847 116.484L346.376 114.812C346.117 113.896 345.111 110.358 344.153 106.951C343.195 103.545 341.718 98.3347 340.873 95.3801C340.039 92.4201 339.071 88.9907 338.724 87.7654C338.376 86.5402 337.807 84.5078 337.444 83.248C336.315 79.2347 330.32 58.0563 329.32 54.5294C328.786 52.6628 327.626 48.552 326.741 45.3918C325.849 42.2485 325.087 39.5916 325.044 39.4995C324.974 39.3499 323.686 39.9226 314.905 44.0174L304.846 48.7079L304.906 48.9879Z" fill="#595959"/>
<path d="M325.364 132.583C324.918 133.099 324.687 133.865 324.794 134.516C324.836 134.846 326.112 137.642 328.829 143.409L332.787 151.806L333.353 152.088C333.649 152.244 334.186 152.373 334.526 152.382L335.156 152.41L348.403 146.233C361.028 140.346 361.656 140.039 361.997 139.628C362.431 139.118 362.616 138.583 362.595 137.906C362.567 137.457 362.07 136.33 358.689 129.079C355.039 121.253 354.775 120.746 354.375 120.4C353.854 119.942 353.093 119.723 352.442 119.83C352.134 119.89 347.52 121.985 338.842 126.031C326.367 131.849 325.705 132.172 325.364 132.583Z" fill="#A6A6A6"/>
<path d="M307.459 162.454C306.656 163.136 306.107 163.911 305.681 164.95C305.218 166.091 305.078 167.263 305.279 168.416C305.421 169.261 306.826 172.304 353.399 272.179C394.813 360.993 401.437 375.139 401.839 375.61C403.341 377.418 405.703 378.278 408.016 377.858C408.615 377.761 414.288 375.143 447.756 359.537C475.815 346.453 486.951 341.218 487.345 340.922C488.302 340.21 489.028 339.212 489.471 337.997C489.895 336.805 489.984 335.824 489.746 334.562C489.611 333.882 484.525 322.915 441.672 231.016C398.819 139.117 393.687 128.172 393.253 127.631C392.972 127.3 392.474 126.803 392.152 126.533C391.424 125.934 389.625 125.26 388.609 125.215C387.027 125.126 387.262 125.031 376.49 130.054L366.615 134.658L366.926 135.326C367.586 136.742 367.652 138.505 367.129 140.178C366.757 141.332 366.083 142.501 365.382 143.192L364.921 143.645L367.406 148.974L369.89 154.302L370.939 155.019C374.917 157.689 377.938 162.095 378.986 166.777C380.399 173.053 378.568 179.792 374.168 184.45C372.373 186.338 370.64 187.58 368.126 188.739C366.33 189.576 365.31 189.912 363.466 190.253C356.077 191.625 348.453 188.497 344.054 182.309C343.075 180.93 341.583 177.731 341.156 176.094C340.57 173.846 340.387 171.199 340.656 168.831L340.767 167.869L338.272 162.517C336.184 158.04 335.753 157.176 335.615 157.241C335.535 157.278 334.943 157.302 334.302 157.279C331.764 157.215 329.507 155.829 328.078 153.427L327.703 152.803L317.846 157.414C309.732 161.198 307.895 162.096 307.459 162.454Z" fill="#A6A6A6"/>
<path d="M340.375 155.399C340.345 155.455 342.801 160.812 345.822 167.291L351.312 179.065L361.498 174.315L371.683 169.566L366.143 157.745L360.597 145.942L350.499 150.608C344.958 153.178 340.4 155.332 340.375 155.399Z" fill="#595959"/>
<path d="M125.504 275.485C152.119 304.379 163.625 316.806 163.611 316.643C163.604 316.54 162.643 313.163 161.47 309.132C160.296 305.102 159.207 301.318 159.032 300.722C158.864 300.121 158.541 298.99 158.306 298.199C158.078 297.404 157.28 294.661 156.534 292.095C155.796 289.525 154.954 286.622 154.675 285.651L154.156 283.879L145.273 274.246L136.391 264.613L129.065 267.997L121.734 271.394L125.504 275.485Z" fill="#F2F2F2"/>
<path d="M152.565 265.41C152.593 265.535 153.103 267.353 153.717 269.461C154.328 271.56 155.114 274.299 155.473 275.53C155.832 276.761 156.311 278.424 156.538 279.219C156.765 280.014 157.854 283.797 158.963 287.625C160.064 291.456 161.341 295.862 161.796 297.43C164.261 305.966 167.612 317.564 168.856 321.9C169.092 322.691 169.287 323.373 169.308 323.417C169.324 323.452 172.653 321.921 176.701 320.022L184.062 316.558L183.699 315.297C183.499 314.606 182.725 311.936 181.987 309.366C181.25 306.796 180.112 302.865 179.462 300.636C178.82 298.403 178.074 295.816 177.807 294.891C177.539 293.967 177.101 292.434 176.821 291.483C175.952 288.455 171.336 272.477 170.566 269.816C170.155 268.408 169.262 265.307 168.58 262.923C167.893 260.551 167.307 258.547 167.274 258.477C167.221 258.364 166.28 258.782 159.866 261.773L152.518 265.199L152.565 265.41Z" fill="#F2F2F2"/>
<path d="M168.429 328.447C168.106 328.83 167.944 329.404 168.029 329.894C168.063 330.143 169.029 332.257 171.083 336.619L174.075 342.969L174.494 343.187C174.714 343.307 175.109 343.409 175.36 343.419L175.823 343.447L185.499 338.935C194.722 334.634 195.18 334.41 195.426 334.104C195.741 333.725 195.871 333.325 195.849 332.816C195.824 332.478 195.448 331.626 192.891 326.142C190.131 320.224 189.931 319.84 189.634 319.576C189.246 319.227 188.685 319.054 188.208 319.128C187.981 319.17 184.611 320.7 178.272 323.655C169.159 327.905 168.675 328.141 168.429 328.447Z" fill="#A6A6A6"/>
<path d="M155.562 350.722C154.979 351.227 154.583 351.804 154.28 352.581C153.951 353.434 153.86 354.314 154.019 355.183C154.132 355.819 155.195 358.121 190.416 433.652C221.736 500.819 226.745 511.517 227.045 511.875C228.167 513.249 229.912 513.919 231.607 513.626C232.047 513.559 236.191 511.648 260.639 500.248C281.135 490.69 289.269 486.865 289.556 486.647C290.252 486.121 290.776 485.378 291.089 484.469C291.389 483.577 291.445 482.841 291.258 481.89C291.152 481.378 287.305 473.084 254.897 403.584C222.488 334.084 218.608 325.806 218.283 325.396C218.074 325.144 217.703 324.766 217.463 324.56C216.922 324.102 215.593 323.577 214.846 323.534C213.682 323.451 213.854 323.382 205.985 327.051L198.772 330.414L199.007 330.919C199.507 331.99 199.572 333.316 199.204 334.568C198.942 335.432 198.458 336.304 197.95 336.817L197.615 337.153L199.494 341.183L201.374 345.212L202.151 345.761C205.102 347.808 207.366 351.149 208.183 354.679C209.284 359.41 208.004 364.458 204.816 367.915C203.515 369.317 202.253 370.233 200.417 371.079C199.105 371.691 198.358 371.933 197.006 372.172C191.588 373.13 185.953 370.703 182.659 366.009C181.925 364.962 180.797 362.543 180.467 361.308C180.014 359.612 179.853 357.621 180.028 355.844L180.1 355.122L178.213 351.075C176.634 347.689 176.309 347.035 176.208 347.082C176.149 347.11 175.714 347.122 175.243 347.098C173.377 347.025 171.704 345.961 170.63 344.141L170.348 343.669L163.147 347.037C157.221 349.801 155.879 350.458 155.562 350.722Z" fill="#A6A6A6"/>
<path d="M179.689 345.745C179.667 345.787 181.525 349.837 183.81 354.737L187.962 363.641L195.403 360.172L202.843 356.703L198.654 347.763L194.46 338.836L187.083 342.244C183.036 344.121 179.706 345.695 179.689 345.745Z" fill="#F2F2F2"/>
<path d="M1593.67 570.707C1642.54 622.694 1663.67 645.05 1663.65 644.754C1663.64 644.567 1661.93 638.438 1659.85 631.124C1657.76 623.81 1655.82 616.943 1655.51 615.861C1655.21 614.772 1654.64 612.718 1654.22 611.283C1653.82 609.841 1652.4 604.863 1651.07 600.207C1649.76 595.543 1648.26 590.275 1647.76 588.511L1646.84 585.297L1630.53 567.965L1614.22 550.632L1600.49 556.978L1586.75 563.346L1593.67 570.707Z" fill="#262626"/>
<path d="M1644.33 551.688C1644.38 551.915 1645.28 555.215 1646.38 559.04C1647.46 562.85 1648.86 567.82 1649.5 570.054C1650.14 572.288 1650.99 575.306 1651.39 576.748C1651.79 578.191 1653.73 585.057 1655.7 592.003C1657.66 598.955 1659.93 606.951 1660.74 609.797C1665.12 625.286 1671.08 646.334 1673.29 654.204C1673.71 655.638 1674.06 656.877 1674.1 656.956C1674.13 657.019 1680.37 654.148 1687.95 650.591L1701.75 644.099L1701.11 641.81C1700.75 640.556 1699.37 635.712 1698.06 631.048C1696.75 626.384 1694.73 619.25 1693.57 615.205C1692.43 611.153 1691.1 606.457 1690.63 604.78C1690.15 603.102 1689.37 600.32 1688.88 598.595C1687.33 593.1 1679.12 564.104 1677.75 559.275C1677.02 556.72 1675.43 551.091 1674.22 546.765C1673 542.461 1671.96 538.823 1671.9 538.697C1671.8 538.493 1670.04 539.277 1658.02 544.883L1644.25 551.305L1644.33 551.688Z" fill="#262626"/>
<path d="M1672.34 666.14C1671.73 666.847 1671.41 667.896 1671.56 668.787C1671.62 669.24 1673.36 673.068 1677.08 680.963L1682.5 692.46L1683.28 692.846C1683.68 693.06 1684.42 693.235 1684.88 693.248L1685.74 693.287L1703.88 684.83C1721.17 676.77 1722.03 676.35 1722.49 675.787C1723.09 675.087 1723.34 674.355 1723.31 673.429C1723.27 672.814 1722.59 671.27 1717.96 661.343C1712.97 650.628 1712.61 649.934 1712.06 649.46C1711.34 648.834 1710.3 648.533 1709.41 648.68C1708.99 648.762 1702.67 651.631 1690.79 657.171C1673.71 665.136 1672.8 665.578 1672.34 666.14Z" fill="#595959"/>
<path d="M1647.82 707.038C1646.72 707.972 1645.97 709.033 1645.39 710.456C1644.75 712.017 1644.56 713.622 1644.84 715.201C1645.03 716.357 1646.96 720.525 1710.72 857.266C1767.42 978.865 1776.49 998.231 1777.04 998.877C1779.1 1001.35 1782.33 1002.53 1785.5 1001.95C1786.32 1001.82 1794.09 998.238 1839.91 976.871C1878.32 958.957 1893.57 951.79 1894.11 951.384C1895.42 950.409 1896.42 949.044 1897.02 947.38C1897.6 945.747 1897.72 944.405 1897.4 942.677C1897.21 941.746 1890.25 926.731 1831.58 800.909C1772.91 675.087 1765.88 660.101 1765.29 659.362C1764.9 658.908 1764.22 658.228 1763.78 657.858C1762.78 657.038 1760.32 656.115 1758.93 656.053C1756.76 655.932 1757.08 655.801 1742.34 662.678L1728.82 668.982L1729.24 669.896C1730.15 671.835 1730.24 674.248 1729.52 676.539C1729.01 678.119 1728.09 679.72 1727.13 680.666L1726.5 681.287L1729.9 688.582L1733.3 695.878L1734.74 696.858C1740.18 700.515 1744.32 706.547 1745.75 712.957C1747.69 721.55 1745.18 730.777 1739.16 737.154C1736.7 739.739 1734.33 741.44 1730.88 743.026C1728.43 744.172 1727.03 744.632 1724.5 745.099C1714.39 746.977 1703.95 742.694 1697.93 734.223C1696.59 732.335 1694.54 727.954 1693.96 725.714C1693.16 722.635 1692.91 719.011 1693.27 715.77L1693.43 714.452L1690.01 707.125C1687.15 700.995 1686.56 699.812 1686.37 699.9C1686.26 699.952 1685.45 699.984 1684.57 699.952C1681.1 699.865 1678.01 697.968 1676.05 694.679L1675.54 693.825L1662.04 700.138C1650.93 705.318 1648.42 706.548 1647.82 707.038Z" fill="#595959"/>
<path d="M1692.89 697.379C1692.85 697.456 1696.21 704.789 1700.35 713.661L1707.86 729.78L1721.81 723.278L1735.75 716.775L1728.17 700.591L1720.58 684.431L1706.75 690.82C1699.16 694.338 1692.92 697.287 1692.89 697.379Z" fill="#262626"/>
<path d="M1155.99 262.989C1233.4 345.335 1266.87 380.747 1266.83 380.277C1266.82 379.981 1264.11 370.273 1260.81 358.688C1257.5 347.102 1254.44 336.226 1253.94 334.512C1253.47 332.787 1252.56 329.534 1251.9 327.261C1251.26 324.977 1249.01 317.092 1246.91 309.716C1244.83 302.328 1242.46 293.984 1241.67 291.191L1240.21 286.099L1214.37 258.646L1188.53 231.192L1166.78 241.243L1145.02 251.33L1155.99 262.989Z" fill="#F2F2F2"/>
<path d="M1236.23 232.865C1236.31 233.224 1237.74 238.45 1239.47 244.51C1241.19 250.545 1243.4 258.416 1244.42 261.955C1245.43 265.494 1246.78 270.275 1247.42 272.559C1248.06 274.843 1251.12 285.72 1254.25 296.721C1257.35 307.734 1260.94 320.399 1262.22 324.907C1269.17 349.442 1278.61 382.78 1282.11 395.245C1282.77 397.518 1283.32 399.48 1283.38 399.605C1283.43 399.704 1293.31 395.157 1305.33 389.522L1327.18 379.24L1326.16 375.615C1325.6 373.628 1323.42 365.955 1321.34 358.567C1319.27 351.18 1316.06 339.881 1314.23 333.473C1312.42 327.054 1310.32 319.617 1309.57 316.96C1308.81 314.303 1307.58 309.895 1306.79 307.163C1304.34 298.46 1291.34 252.531 1289.18 244.882C1288.02 240.834 1285.5 231.919 1283.58 225.066C1281.65 218.249 1279.99 212.488 1279.9 212.288C1279.75 211.963 1276.96 213.205 1257.91 222.086L1236.1 232.258L1236.23 232.865Z" fill="#F2F2F2"/>
<path d="M1280.6 414.153C1279.63 415.272 1279.13 416.934 1279.36 418.345C1279.45 419.062 1282.22 425.125 1288.11 437.631L1296.69 455.841L1297.92 456.454C1298.56 456.792 1299.73 457.07 1300.47 457.09L1301.83 457.152L1330.56 443.756C1357.94 430.989 1359.3 430.324 1360.04 429.432C1360.98 428.325 1361.38 427.165 1361.34 425.698C1361.28 424.723 1360.2 422.278 1352.87 406.554C1344.95 389.582 1344.38 388.482 1343.51 387.732C1342.38 386.74 1340.73 386.264 1339.32 386.496C1338.65 386.626 1328.64 391.17 1309.83 399.945C1282.77 412.561 1281.33 413.261 1280.6 414.153Z" fill="#A6A6A6"/>
<path d="M1241.77 478.932C1240.02 480.412 1238.83 482.092 1237.91 484.346C1236.91 486.82 1236.6 489.362 1237.04 491.863C1237.35 493.695 1240.39 500.295 1341.39 716.889C1431.21 909.496 1445.57 940.172 1446.44 941.194C1449.7 945.115 1454.82 946.98 1459.84 946.069C1461.14 945.859 1473.44 940.182 1546.02 906.338C1606.87 877.963 1631.02 866.61 1631.88 865.968C1633.95 864.423 1635.53 862.261 1636.49 859.626C1637.41 857.039 1637.6 854.913 1637.08 852.176C1636.79 850.702 1625.76 826.918 1532.83 627.621C1439.89 428.324 1428.76 404.587 1427.82 403.415C1427.21 402.696 1426.13 401.62 1425.44 401.034C1423.86 399.734 1419.95 398.272 1417.75 398.175C1414.32 397.983 1414.83 397.775 1391.47 408.669L1370.05 418.654L1370.73 420.102C1372.16 423.172 1372.3 426.995 1371.17 430.623C1370.36 433.127 1368.9 435.662 1367.38 437.161L1366.38 438.144L1371.77 449.699L1377.16 461.255L1379.43 462.808C1388.06 468.601 1394.61 478.155 1396.88 488.308C1399.95 501.92 1395.98 516.534 1386.43 526.635C1382.54 530.73 1378.78 533.424 1373.33 535.936C1369.44 537.752 1367.22 538.48 1363.22 539.22C1347.2 542.195 1330.67 535.411 1321.13 521.992C1319 519.002 1315.77 512.063 1314.84 508.514C1313.57 503.638 1313.17 497.898 1313.76 492.764L1314 490.676L1308.59 479.07C1304.06 469.361 1303.13 467.487 1302.83 467.627C1302.65 467.709 1301.37 467.76 1299.98 467.709C1294.47 467.571 1289.58 464.567 1286.48 459.357L1285.67 458.004L1264.29 468.003C1246.69 476.209 1242.71 478.157 1241.77 478.932Z" fill="#A6A6A6"/>
<path d="M1313.15 463.634C1313.08 463.755 1318.41 475.371 1324.96 489.423L1336.87 514.956L1358.96 504.656L1381.05 494.356L1369.03 468.721L1357 443.124L1335.1 453.244C1323.09 458.817 1313.2 463.488 1313.15 463.634Z" fill="#F2F2F2"/>
<path d="M22.9886 501.376C86.5721 569.01 114.061 598.095 114.031 597.71C114.017 597.467 111.797 589.493 109.081 579.977C106.366 570.462 103.848 561.528 103.441 560.121C103.055 558.704 102.308 556.032 101.762 554.165C101.236 552.289 99.3896 545.813 97.6628 539.755C95.9565 533.687 94.0086 526.834 93.3629 524.539L92.1617 520.357L70.9403 497.809L49.7189 475.26L31.8554 483.515L13.9809 491.8L22.9886 501.376Z" fill="#595959"/>
<path d="M88.8932 476.634C88.9559 476.929 90.1339 481.221 91.5563 486.198C92.9691 491.155 94.786 497.62 95.6173 500.527C96.4486 503.434 97.5557 507.36 98.0812 509.236C98.6068 511.112 101.125 520.046 103.692 529.082C106.237 538.127 109.191 548.529 110.244 552.231C115.947 572.383 123.699 599.765 126.576 610.004C127.123 611.87 127.574 613.482 127.622 613.584C127.66 613.666 135.777 609.931 145.648 605.303L163.598 596.858L162.758 593.88C162.297 592.249 160.506 585.946 158.8 579.878C157.093 573.811 154.463 564.53 152.957 559.268C151.472 553.995 149.747 547.887 149.128 545.704C148.51 543.522 147.496 539.902 146.849 537.658C144.838 530.509 134.161 492.786 132.379 486.504C131.428 483.179 129.361 475.857 127.785 470.228C126.197 464.629 124.839 459.897 124.762 459.733C124.638 459.466 122.344 460.486 106.702 467.78L88.7854 476.135L88.8932 476.634Z" fill="#595959"/>
<path d="M125.332 625.533C124.538 626.452 124.126 627.817 124.317 628.976C124.392 629.565 126.665 634.545 131.504 644.817L138.554 659.774L139.562 660.277C140.091 660.554 141.046 660.783 141.652 660.8L142.774 660.85L166.37 649.848C188.858 639.361 189.976 638.815 190.583 638.083C191.356 637.173 191.686 636.221 191.648 635.015C191.599 634.215 190.713 632.207 184.691 619.292C178.19 605.352 177.719 604.449 177.007 603.832C176.078 603.018 174.723 602.627 173.564 602.818C173.015 602.924 164.797 606.656 149.34 613.864C127.119 624.226 125.939 624.801 125.332 625.533Z" fill="#262626"/>
<path d="M93.4403 678.739C92.0107 679.955 91.0319 681.335 90.2729 683.186C89.4484 685.218 89.199 687.306 89.5578 689.36C89.8102 690.864 92.3133 696.286 175.268 874.183C249.037 1032.38 260.835 1057.58 261.551 1058.41C264.226 1061.63 268.434 1063.17 272.553 1062.42C273.62 1062.25 283.725 1057.58 343.338 1029.79C393.317 1006.48 413.153 997.156 413.855 996.628C415.559 995.36 416.853 993.583 417.64 991.419C418.397 989.295 418.556 987.548 418.131 985.3C417.891 984.09 408.832 964.555 332.502 800.864C256.171 637.173 247.03 617.676 246.257 616.714C245.757 616.124 244.87 615.239 244.296 614.758C243 613.69 239.795 612.49 237.985 612.41C235.166 612.252 235.586 612.081 216.398 621.029L198.809 629.231L199.364 630.419C200.54 632.941 200.656 636.081 199.725 639.061C199.061 641.117 197.861 643.2 196.613 644.43L195.792 645.238L200.218 654.729L204.643 664.221L206.511 665.496C213.596 670.253 218.978 678.101 220.845 686.44C223.362 697.62 220.1 709.623 212.263 717.919C209.065 721.283 205.979 723.495 201.5 725.559C198.302 727.05 196.485 727.648 193.2 728.257C180.038 730.7 166.459 725.128 158.624 714.106C156.88 711.65 154.222 705.951 153.462 703.036C152.418 699.031 152.091 694.317 152.571 690.1L152.769 688.385L148.324 678.852C144.606 670.878 143.838 669.339 143.592 669.454C143.449 669.521 142.395 669.563 141.253 669.522C136.733 669.408 132.712 666.94 130.167 662.661L129.5 661.55L111.941 669.763C97.4885 676.502 94.2167 678.103 93.4403 678.739Z" fill="#262626"/>
<path d="M152.071 666.174C152.017 666.274 156.391 675.814 161.773 687.356L171.552 708.327L189.695 699.867L207.837 691.407L197.969 670.353L188.09 649.328L170.104 657.64C160.234 662.218 152.114 666.054 152.071 666.174Z" fill="#595959"/>
<path d="M1712.84 88.5488C1717.06 124.097 1718.84 139.427 1718.73 139.323C1718.66 139.258 1716.86 136.626 1714.72 133.465C1712.58 130.304 1710.56 127.346 1710.25 126.877C1709.93 126.411 1709.32 125.529 1708.91 124.905C1708.48 124.284 1707.03 122.133 1705.67 120.121C1704.3 118.113 1702.75 115.839 1702.24 115.08L1701.3 113.688L1699.9 101.83L1698.5 89.9715L1705.36 86.7407L1712.24 83.5141L1712.84 88.5488Z" fill="#A6A6A6"/>
<path d="M1689.19 101.885C1689.26 101.976 1690.24 103.388 1691.36 105.042C1692.47 106.688 1693.93 108.828 1694.58 109.794C1695.24 110.76 1696.12 112.06 1696.55 112.68C1696.97 113.301 1698.99 116.259 1701.02 119.257C1703.06 122.251 1705.4 125.702 1706.23 126.931C1710.77 133.611 1716.94 142.688 1719.25 146.076C1719.67 146.7 1720.03 147.233 1720.05 147.273C1720.06 147.304 1716.95 148.776 1713.13 150.545L1706.19 153.754L1705.52 152.768C1705.15 152.227 1703.73 150.136 1702.36 148.128C1700.99 146.12 1698.91 143.042 1697.72 141.293C1696.53 139.547 1695.16 137.524 1694.67 136.8C1694.17 136.076 1693.36 134.879 1692.85 134.132C1691.24 131.766 1682.74 119.261 1681.33 117.178C1680.58 116.072 1678.93 113.647 1677.66 111.786C1676.4 109.929 1675.34 108.355 1675.31 108.291C1675.26 108.189 1676.13 107.764 1682.16 104.951L1689.07 101.729L1689.19 101.885Z" fill="#A6A6A6"/>
<path d="M1724.15 149.558C1724.62 149.551 1725.12 149.768 1725.42 150.112C1725.57 150.28 1726.48 152.186 1728.31 156.161L1730.98 161.951L1730.88 162.374C1730.83 162.599 1730.66 162.938 1730.52 163.121L1730.26 163.465L1721.16 167.708C1712.49 171.752 1712.05 171.947 1711.68 171.944C1711.22 171.948 1710.86 171.809 1710.51 171.499C1710.29 171.286 1709.91 170.526 1707.59 165.546C1705.08 160.17 1704.93 159.807 1704.93 159.444C1704.92 158.968 1705.14 158.471 1705.48 158.176C1705.65 158.04 1708.79 156.537 1714.75 153.758C1723.32 149.762 1723.78 149.556 1724.15 149.558Z" fill="#F2F2F2"/>
<path d="M1747.77 153.325C1748.48 153.204 1749.13 153.257 1749.87 153.492C1750.67 153.752 1751.35 154.196 1751.87 154.811C1752.25 155.259 1753.23 157.342 1785.22 225.944C1813.67 286.95 1818.19 296.681 1818.26 297.1C1818.55 298.689 1817.96 300.311 1816.71 301.343C1816.4 301.615 1812.52 303.445 1789.53 314.164C1770.25 323.152 1762.58 326.7 1762.25 326.777C1761.46 326.966 1760.61 326.908 1759.78 326.604C1758.96 326.301 1758.41 325.915 1757.85 325.232C1757.55 324.861 1754.02 317.343 1724.59 254.218C1695.15 191.094 1691.66 183.561 1691.57 183.094C1691.52 182.8 1691.48 182.319 1691.48 182.03C1691.48 181.383 1691.92 180.138 1692.35 179.584C1693 178.712 1692.84 178.794 1700.24 175.343L1707.03 172.18L1707.24 172.639C1707.69 173.611 1708.59 174.424 1709.7 174.888C1710.47 175.201 1711.39 175.363 1712.06 175.299L1712.5 175.257L1714.21 178.917L1715.92 182.577L1715.83 183.445C1715.48 186.717 1716.46 190.252 1718.46 192.871C1721.14 196.386 1725.5 198.397 1729.89 198.139C1731.68 198.028 1733.1 197.664 1734.82 196.853C1736.05 196.278 1736.68 195.889 1737.67 195.07C1741.65 191.787 1743.37 186.394 1742.06 181.348C1741.77 180.224 1740.74 178.026 1740.07 177.079C1739.14 175.778 1737.83 174.513 1736.47 173.609L1735.91 173.243L1734.2 169.567C1732.76 166.492 1732.5 165.883 1732.6 165.839C1732.65 165.813 1732.92 165.513 1733.2 165.165C1734.28 163.801 1734.55 162.002 1733.92 160.19L1733.75 159.717L1740.53 156.566C1746.11 153.967 1747.39 153.397 1747.77 153.325Z" fill="#F2F2F2"/>
<path d="M1729.52 167.531C1729.57 167.54 1731.3 171.197 1733.38 175.648L1737.15 183.735L1730.15 186.997L1723.16 190.259L1719.38 182.125L1715.62 173.996L1722.53 170.743C1726.33 168.962 1729.48 167.514 1729.52 167.531Z" fill="#A6A6A6"/>
<path d="M348.266 445.976C409.851 511.484 436.476 539.655 436.447 539.282C436.434 539.046 434.283 531.323 431.653 522.107C429.023 512.89 426.584 504.237 426.19 502.874C425.816 501.502 425.093 498.914 424.564 497.106C424.055 495.288 422.266 489.016 420.594 483.148C418.941 477.271 417.054 470.633 416.429 468.411L415.265 464.36L394.711 442.52L374.156 420.68L356.854 428.676L339.542 436.7L348.266 445.976Z" fill="#262626"/>
<path d="M412.1 422.011C412.16 422.297 413.301 426.454 414.679 431.275C416.048 436.076 417.807 442.338 418.613 445.153C419.418 447.968 420.49 451.771 420.999 453.589C421.508 455.406 423.947 464.059 426.433 472.81C428.899 481.571 431.76 491.647 432.779 495.233C438.303 514.751 445.812 541.273 448.599 551.189C449.128 552.997 449.565 554.558 449.612 554.657C449.649 554.736 457.51 551.119 467.071 546.636L484.457 538.457L483.644 535.573C483.197 533.992 481.462 527.888 479.809 522.011C478.157 516.134 475.609 507.145 474.151 502.048C472.712 496.941 471.041 491.025 470.442 488.911C469.843 486.797 468.861 483.291 468.234 481.117C466.286 474.193 455.945 437.656 454.219 431.571C453.298 428.351 451.296 421.259 449.769 415.807C448.231 410.384 446.916 405.8 446.842 405.641C446.721 405.383 444.499 406.371 429.349 413.435L411.995 421.528L412.1 422.011Z" fill="#262626"/>
<path d="M447.394 566.231C446.625 567.121 446.226 568.443 446.411 569.566C446.484 570.136 448.685 574.96 453.372 584.909L460.2 599.395L461.177 599.883C461.689 600.151 462.614 600.373 463.202 600.389L464.288 600.438L487.142 589.781C508.923 579.624 510.006 579.095 510.594 578.386C511.343 577.505 511.663 576.582 511.626 575.415C511.579 574.639 510.72 572.695 504.887 560.186C498.591 546.684 498.135 545.809 497.445 545.212C496.546 544.423 495.233 544.044 494.11 544.229C493.578 544.332 485.619 547.947 470.648 554.928C449.125 564.965 447.982 565.521 447.394 566.231Z" fill="#F2F2F2"/>
<path d="M416.504 617.765C415.119 618.942 414.171 620.279 413.436 622.072C412.637 624.04 412.396 626.062 412.743 628.051C412.988 629.509 415.412 634.76 495.76 807.066C567.21 960.291 578.638 984.695 579.331 985.508C581.922 988.627 585.998 990.11 589.987 989.386C591.021 989.218 600.808 984.703 658.548 957.778C706.956 935.205 726.168 926.174 726.849 925.663C728.499 924.434 729.752 922.714 730.515 920.618C731.247 918.56 731.401 916.869 730.991 914.691C730.758 913.519 721.983 894.598 648.052 736.051C574.12 577.505 565.266 558.621 564.518 557.689C564.033 557.117 563.175 556.26 562.619 555.794C561.363 554.76 558.258 553.597 556.506 553.52C553.776 553.367 554.182 553.202 535.597 561.868L518.561 569.812L519.098 570.964C520.237 573.406 520.35 576.447 519.448 579.334C518.805 581.325 517.643 583.342 516.434 584.534L515.638 585.316L519.925 594.509L524.212 603.702L526.021 604.938C532.883 609.546 538.096 617.147 539.904 625.223C542.343 636.052 539.183 647.678 531.593 655.714C528.495 658.971 525.505 661.114 521.168 663.113C518.07 664.557 516.31 665.136 513.128 665.726C500.38 668.092 487.227 662.695 479.639 652.02C477.949 649.641 475.375 644.121 474.639 641.298C473.628 637.419 473.311 632.852 473.776 628.768L473.968 627.107L469.663 617.874C466.061 610.151 465.318 608.66 465.08 608.771C464.941 608.836 463.92 608.877 462.814 608.837C458.436 608.727 454.541 606.337 452.077 602.192L451.43 601.116L434.423 609.071C420.425 615.598 417.256 617.148 416.504 617.765Z" fill="#F2F2F2"/>
<path d="M473.291 605.594C473.24 605.691 477.476 614.932 482.689 626.11L492.161 646.423L509.733 638.229L527.305 630.035L517.747 609.642L508.179 589.278L490.758 597.329C481.198 601.763 473.334 605.478 473.291 605.594Z" fill="#262626"/>
<path d="M1409.67 58.7066C1458.54 110.694 1479.67 133.05 1479.65 132.754C1479.64 132.567 1477.93 126.438 1475.85 119.124C1473.76 111.81 1471.82 104.943 1471.51 103.861C1471.21 102.772 1470.64 100.718 1470.22 99.2833C1469.82 97.841 1468.4 92.863 1467.07 88.2065C1465.76 83.5426 1464.26 78.2747 1463.76 76.5111L1462.84 73.2968L1446.53 55.9645L1430.22 38.6323L1416.49 44.9775L1402.75 51.3459L1409.67 58.7066Z" fill="#F2F2F2"/>
<path d="M1460.33 39.6884C1460.38 39.9152 1461.28 43.2146 1462.38 47.0403C1463.46 50.8502 1464.86 55.8197 1465.5 58.054C1466.14 60.2883 1466.99 63.3061 1467.39 64.7484C1467.79 66.1906 1469.73 73.0572 1471.7 80.0027C1473.66 86.9554 1475.93 94.9513 1476.74 97.7969C1481.12 113.286 1487.08 134.334 1489.29 142.204C1489.71 143.639 1490.06 144.877 1490.1 144.956C1490.13 145.019 1496.37 142.148 1503.95 138.591L1517.75 132.099L1517.11 129.81C1516.75 128.556 1515.37 123.712 1514.06 119.048C1512.75 114.384 1510.73 107.25 1509.57 103.205C1508.43 99.1528 1507.1 94.4574 1506.63 92.7798C1506.15 91.1023 1505.37 88.3197 1504.88 86.5949C1503.33 81.1001 1495.12 52.1042 1493.75 47.2754C1493.02 44.7197 1491.43 39.0915 1490.22 34.7648C1489 30.4612 1487.96 26.8236 1487.9 26.6975C1487.8 26.4927 1486.04 27.2767 1474.02 32.8831L1460.25 39.305L1460.33 39.6884Z" fill="#F2F2F2"/>
<path d="M1488.34 154.14C1487.73 154.847 1487.41 155.896 1487.56 156.787C1487.62 157.24 1489.36 161.068 1493.08 168.963L1498.5 180.46L1499.28 180.846C1499.68 181.06 1500.42 181.235 1500.88 181.248L1501.74 181.287L1519.88 172.83C1537.17 164.77 1538.03 164.35 1538.49 163.787C1539.09 163.088 1539.34 162.355 1539.31 161.429C1539.27 160.814 1538.59 159.27 1533.96 149.343C1528.97 138.628 1528.61 137.934 1528.06 137.46C1527.34 136.834 1526.3 136.533 1525.41 136.68C1524.99 136.762 1518.67 139.631 1506.79 145.171C1489.71 153.136 1488.8 153.578 1488.34 154.14Z" fill="#262626"/>
<path d="M1463.82 195.038C1462.72 195.972 1461.97 197.033 1461.39 198.456C1460.75 200.017 1460.56 201.622 1460.84 203.201C1461.03 204.357 1462.96 208.525 1526.72 345.266C1583.42 466.865 1592.49 486.232 1593.04 486.877C1595.1 489.352 1598.33 490.529 1601.5 489.954C1602.32 489.821 1610.09 486.238 1655.91 464.871C1694.32 446.957 1709.57 439.79 1710.11 439.384C1711.42 438.409 1712.42 437.044 1713.02 435.38C1713.6 433.747 1713.72 432.405 1713.4 430.677C1713.21 429.746 1706.25 414.731 1647.58 288.909C1588.91 163.087 1581.88 148.101 1581.29 147.362C1580.9 146.908 1580.22 146.228 1579.78 145.858C1578.78 145.038 1576.32 144.115 1574.93 144.053C1572.76 143.932 1573.08 143.801 1558.34 150.678L1544.82 156.983L1545.24 157.896C1546.15 159.835 1546.24 162.248 1545.52 164.539C1545.01 166.119 1544.09 167.72 1543.13 168.666L1542.5 169.287L1545.9 176.582L1549.3 183.878L1550.74 184.858C1556.18 188.515 1560.32 194.547 1561.75 200.957C1563.69 209.55 1561.18 218.777 1555.16 225.154C1552.7 227.739 1550.33 229.44 1546.88 231.026C1544.43 232.172 1543.03 232.632 1540.5 233.099C1530.39 234.977 1519.95 230.694 1513.93 222.223C1512.59 220.335 1510.54 215.954 1509.96 213.714C1509.16 210.635 1508.91 207.011 1509.27 203.77L1509.43 202.452L1506.01 195.125C1503.15 188.995 1502.56 187.812 1502.37 187.9C1502.26 187.952 1501.45 187.984 1500.57 187.952C1497.1 187.865 1494.01 185.968 1492.05 182.679L1491.54 181.825L1478.04 188.138C1466.93 193.318 1464.42 194.548 1463.82 195.038Z" fill="#262626"/>
<path d="M1508.89 185.379C1508.85 185.456 1512.21 192.789 1516.35 201.661L1523.86 217.78L1537.81 211.278L1551.75 204.775L1544.17 188.591L1536.58 172.431L1522.75 178.82C1515.16 182.338 1508.92 185.287 1508.89 185.379Z" fill="#F2F2F2"/>
</svg>
